<?xml version="1.0" encoding="UTF-8" standalone="no" ?>
<!DOCTYPE svg PUBLIC "-//W3C//DTD SVG 1.1//EN" "http://www.w3.org/Graphics/SVG/1.1/DTD/svg11.dtd">
<svg xmlns="http://www.w3.org/2000/svg" xmlns:xlink="http://www.w3.org/1999/xlink" version="1.1" width="640" height="480" viewBox="0 0 640 480" xml:space="preserve">
<desc>Created with Fabric.js 3.6.6</desc>
<defs>
</defs>
<g transform="matrix(1 0 0 1 320.5 256.5)"  >
<path style="stroke: none; stroke-width: 1; stroke-dasharray: none; stroke-linecap: butt; stroke-dashoffset: 0; stroke-linejoin: miter; stroke-miterlimit: 4; fill: rgb(41,217,213); fill-rule: nonzero; opacity: 1;"  transform=" translate(-320, -256)" d="M 560 160 c 44.2 0 80 -35.8 80 -80 s -35.8 -80 -80 -80 s -80 35.8 -80 80 s 35.8 80 80 80 z M 55.9 512 H 381.1 h 75 H 578.9 c 33.8 0 61.1 -27.4 61.1 -61.1 c 0 -11.2 -3.1 -22.2 -8.9 -31.8 l -132 -216.3 C 495 196.1 487.8 192 480 192 s -15 4.1 -19.1 10.7 l -48.2 79 L 286.8 81 c -6.6 -10.6 -18.3 -17 -30.8 -17 s -24.1 6.4 -30.8 17 L 8.6 426.4 C 3 435.3 0 445.6 0 456.1 C 0 487 25 512 55.9 512 z" stroke-linecap="round" />
</g>
</svg>