<svg xmlns="http://www.w3.org/2000/svg" width="512" height="512"><rect id="backgroundrect" width="100%" height="100%" x="0" y="0" fill="none" stroke="none"/><!--! Font Awesome Pro 6.2.1 by @fontawesome - https://fontawesome.com License - https://fontawesome.com/license (Commercial License) Copyright 2022 Fonticons, Inc. --><g class="currentLayer" style=""><title>Layer 1</title><path d="M2.158273458480835,118.30215835571289 C2.158273458480835,83.0021583557129 30.858273458480834,54.30215835571289 66.15827345848083,54.30215835571289 H450.15827345848083 c35.3,0 64,28.7 64,64 V438.3021583557129 c0,35.3 -28.7,64 -64,64 H66.15827345848083 c-35.3,0 -64,-28.7 -64,-64 V118.30215835571289 zM325.95827345848085,224.8021583557129 c-4.5,-6.6 -11.9,-10.5 -19.8,-10.5 s-15.4,3.9 -19.8,10.5 l-87,127.6 L172.85827345848082,319.3021583557129 c-4.6,-5.7 -11.5,-9 -18.7,-9 s-14.2,3.3 -18.7,9 l-64,80 c-5.8,7.2 -6.9,17.1 -2.9,25.4 s12.4,13.6 21.6,13.6 h96 h32 H426.15827345848083 c8.9,0 17.1,-4.9 21.2,-12.8 s3.6,-17.4 -1.4,-24.7 l-120,-176 zM114.15827345848083,214.3021583557129 c26.5,0 48,-21.5 48,-48 s-21.5,-48 -48,-48 s-48,21.5 -48,48 s21.5,48 48,48 z" id="svg_1" class="selected" fill="#29d9d5" fill-opacity="1"/></g></svg>